<svg xmlns="http://www.w3.org/2000/svg" data-name="Layer 1" viewBox="0 0 128 128" id="horse"><path d="M35.16025 96.18094a2.00172 2.00172 0 0 0-2.78836.47465c-2.02657 2.85277-8.4979 13.46854-10.30863 20.6263a1.99614 1.99614 0 0 0 1.45034 2.42393 2.02919 2.02919 0 0 0 .49126.06043 2.00047 2.00047 0 0 0 1.93769-1.50777c1.58023-6.24744 7.4939-16.19753 9.69333-19.29494A1.99332 1.99332 0 0 0 35.16025 96.18094zM67.1126 61.66019l8.39731 2.154a2.02567 2.02567 0 0 0 2.11056-.7534 1.99238 1.99238 0 0 0 .08595-2.23485l-4.51216-7.23475a9.98219 9.98219 0 0 0-5.03272-4.17341c-2.92411-1.04481-5.6695-.47465-7.16769 1.4873-1.5187 1.98924-1.29017 4.76306.59771 7.2367A10.05478 10.05478 0 0 0 67.1126 61.66019zM64.17579 53.3241a1.46452 1.46452 0 0 1 1.18664-.424 4.40084 4.40084 0 0 1 1.45131.27582 5.984 5.984 0 0 1 2.98369 2.52432L71.67359 58.708l-3.56383-.91421a6.05386 6.05386 0 0 1-3.33529-2.07013C64.04785 54.77144 63.80759 53.80654 64.17579 53.3241z"></path><path d="M126.80789,91.143a6.74254,6.74254,0,0,1-.56256-1.73l-.55767-2.7709c-.52056-2.58767-2.91728-3.9892-4.66745-5.01257-.32718-.192-.64264-.37524-.92685-.55749-1.23743-1.09549-8.52329-10.65184-14.88525-19.29981a32.80775,32.80775,0,0,1-4.93505-12.37695c-.02735-.19688-.05762-.45028-.09376-.7456-.27444-2.25921-.78426-6.46478-2.23166-8.9813a39.39049,39.39049,0,0,0-5.69587-7.5671C97.807,23.41241,97.4349,10.85613,95.78044,4.64475,94.77449.869,92.74011.12535,91.616.01814,90.4811-.08517,88.33245.2618,86.6106,3.81241A55.37732,55.37732,0,0,1,73.02431,21.2146c-.54986-.13255-1.08214-.25048-1.61149-.35672A57.8429,57.8429,0,0,0,60.441,19.71024,57.64541,57.64541,0,0,1,57.44368,5.75389C57.097,1.67308,55.47279.42651,54.1709.099c-1.22766-.308-3.09308-.04483-5.0503,2.94634-3.71289,5.67-7.38561,13.27057-7.11654,20.85844q-1.20669.71106-2.56415,1.58592a1.97719,1.97719,0,0,0-.28024.14681c-3.42221,2.25727-10.92,1.17639-13.52476.56821a42.838,42.838,0,0,0-9.66012-1.24949,1.99614,1.99614,0,0,0,.02832,3.99212h.03028a36.616,36.616,0,0,1,8.6903,1.1452,38.37134,38.37134,0,0,0,6.77953.89052q-.80693.58789-1.62614,1.193c-2.5155,1.16683-7.49628.71971-9.20067.44669-7.20676-1.23682-9.8955-.45028-10.36137-.27972a2.02366,2.02366,0,0,0-1.2218,2.57207,1.97077,1.97077,0,0,0,2.53443,1.19783c.02051-.00487,2.20725-.614,8.39047.44736a33.364,33.364,0,0,0,3.6021.34472q-1.20019.92487-2.3919,1.85364a2.00327,2.00327,0,0,0-.33512.1359,12.78259,12.78259,0,0,1-5.63922.9337,26.859,26.859,0,0,1-4.34711-.50486c-3.00518-.50779-6.40981-1.08477-9.68552.29921A1.99657,1.99657,0,1,0,2.78013,43.299c2.20139-.92883,4.75632-.49512,7.45776-.04a32.76677,32.76677,0,0,0,4.61178.54586C6.87319,50.19563.616,55.49358.51429,55.6067a1.9981,1.9981,0,0,0,2.86258,2.78357C5.26524,56.71,30.17857,35.93068,42.59665,28.17091a19.24455,19.24455,0,0,0,1.41213,3.83685,1.99965,1.99965,0,0,0,3.58824-1.766c-4.30609-8.71328,1.20422-19.41092,4.87255-25.01315a6.61816,6.61816,0,0,1,.671-.882,7.77335,7.77335,0,0,1,.31644,1.7446,63.12713,63.12713,0,0,0,6.35609,22.45764,42.60894,42.60894,0,0,0,2.5354,4.50575,2.03939,2.03939,0,0,0,2.77372.54094,1.99576,1.99576,0,0,0,.545-2.76993,39.99332,39.99332,0,0,1-2.27073-4.05158c-.45-.90538-.92319-1.92132-1.39888-3.032a54.16276,54.16276,0,0,1,7.824.88924,6.35343,6.35343,0,0,1,1.2221,2.69729,2.03983,2.03983,0,0,0,2.344,1.58089,1.99656,1.99656,0,0,0,1.58414-2.33913,10.20183,10.20183,0,0,0-.41307-1.47432,1.95681,1.95681,0,0,0,.24215-.15527A59.60412,59.60412,0,0,0,90.21252,5.55117a4.3012,4.3012,0,0,1,1.01084-1.46488,4.23532,4.23532,0,0,1,.69147,1.58379c1.55759,5.84826,1.57791,16.72256-2.83963,23.96035A16.509,16.509,0,0,0,85.09971,27.846a1.9965,1.9965,0,0,0-1.02354,3.85957,13.58053,13.58053,0,0,1,5.29648,3.167,35.29341,35.29341,0,0,1,5.10493,6.78209c1.04307,1.81478,1.508,5.63829,1.73064,7.47548.03907.32066.07227.59453.10157.808a36.56467,36.56467,0,0,0,5.64313,14.15371c5.23684,7.11974,14.26507,19.22281,15.89609,20.28615.34867.22709.74031.45711,1.14855.69589,1.15832.67737,2.59986,1.52044,2.76785,2.35375l.55767,2.7709a10.63936,10.63936,0,0,0,.91513,2.74653,8.07294,8.07294,0,0,1-1.09483,8.61289l-11.72673,9.068c-.627.40448-3.10773.45418-6.99971-4.152-.084-.09844-8.7196-9.88382-35.58649-8.95109a12.20591,12.20591,0,0,1-3.60875-.36939,17.8848,17.8848,0,0,1-11.60953-9.415,1.99936,1.99936,0,0,0-3.6,1.74071,21.11842,21.11842,0,0,0,4.83171,6.47624c-3.47654,4.76215-11.24274,16.45356-14.28381,29.59907a1.99755,1.99755,0,0,0,1.49917,2.39469A2.05513,2.05513,0,0,0,41.51146,128a2.00031,2.00031,0,0,0,1.94746-1.54675c2.83737-12.26651,10.28488-23.52207,13.58818-28.08588a23.456,23.456,0,0,0,6.13347,2.64,16.251,16.251,0,0,0,4.79051.50584c24.3725-.86645,32.344,7.4901,32.39086,7.53884,3.89589,4.60907,7.08077,5.73965,9.26751,5.73965a5.273,5.273,0,0,0,3.23762-1.01168l11.85468-9.16551a1.91655,1.91655,0,0,0,.22463-.20175A12.09682,12.09682,0,0,0,126.80789,91.143Z"></path><path d="M112.8495 92.82136a1.36272 1.36272 0 0 1 .14943.1306 1.37713 1.37713 0 0 1 .14552.17154 2.00018 2.00018 0 0 0 1.7404 1.807 2.0605 2.0605 0 0 0 .25588.01559 1.9997 1.9997 0 0 0 1.98164-1.74363 3.96313 3.96313 0 0 0-1.28724-3.06524 3.7081 3.7081 0 0 0-3.16437-1.27288 1.996 1.996 0 0 0 .17873 3.957zM39.65581 64.74785a1.99967 1.99967 0 0 0-2.77762-.52436c-.89071.60525-21.96992 15.18683-36.69011 46.71545a1.99914 1.99914 0 0 0 3.62535 1.68613C18.04237 82.15 38.92234 67.664 39.13232 67.52167A1.99486 1.99486 0 0 0 39.65581 64.74785z"></path></svg>